<?xml version="1.0" encoding="utf-8"?>
<!-- Generator: Adobe Illustrator 27.0.0, SVG Export Plug-In . SVG Version: 6.00 Build 0)  -->
<svg version="1.1" id="Layer_1" xmlns="http://www.w3.org/2000/svg" xmlns:xlink="http://www.w3.org/1999/xlink" x="0px" y="0px"
	 viewBox="0 0 600 600" style="enable-background:new 0 0 600 600;" xml:space="preserve">
<g>
	<path d="M370.05,314.49l-21.45,29.3l-42.74,58.4l-74.94-102.35l74.94-102.32l42.74,58.37l21.45,29.3h108.21l-21.45-29.3
		L341.79,98.79l-35.94,49.12l-35.97-49.12L122.7,299.85L269.88,500.9l35.97-49.12l35.94,49.12l115.01-157.11l21.45-29.3H370.05z
		 M341.79,148.4l78.72,107.49h-35.61l-60.91-83.18L341.79,148.4z M269.88,451.32L159,299.85L269.88,148.4l17.81,24.32l-93.07,127.13
		L287.68,427L269.88,451.32z M341.79,451.32L323.98,427l60.91-83.21h35.61L341.79,451.32z"/>
</g>
</svg>
